
<global>
amp_veltrack=0
master-volume=10
</global>

<group>
ampeg_release=0.2
group_label=P
loop_mode=loop_continuous
xf_cccurve=gain
xfin_hicc1=25
xfout_hicc1=50
xfout_locc1=26

<region>
hivel=127
key=C3
loop_end=163268
loop_mode=loop_continuous
loop_start=34169
loop_xfade=34169
lovel=0
sample=Timbales_Large_Roll_P_D4.opus
</region>

<region>
hivel=127
key=D3
loop_end=165613
loop_mode=loop_continuous
loop_start=34659
loop_xfade=34659
lovel=0
sample=Timbales_Small_Roll_P_D4.opus
</region>
</group>

<group>
ampeg_release=0.2
group_label=MP
loop_mode=loop_continuous
xf_cccurve=gain
xfin_hicc1=50
xfin_locc1=26
xfout_hicc1=76
xfout_locc1=51

<region>
hivel=127
key=C3
loop_end=158650
loop_mode=loop_continuous
loop_start=33202
loop_xfade=33202
lovel=0
sample=Timbales_Large_Roll_MP_D4.opus
</region>

<region>
hivel=127
key=D3
loop_end=158727
loop_mode=loop_continuous
loop_start=35819
loop_xfade=33218
lovel=0
sample=Timbales_Small_Roll_MP_D4.opus
</region>
</group>

<group>
ampeg_release=0.2
group_label=MF
loop_mode=loop_continuous
xf_cccurve=gain
xfin_hicc1=76
xfin_locc1=51
xfout_hicc1=101
xfout_locc1=77

<region>
hivel=127
key=C3
loop_end=155179
loop_mode=loop_continuous
loop_start=32476
loop_xfade=32476
lovel=0
sample=Timbales_Large_Roll_MF_D4.opus
</region>

<region>
hivel=127
key=D3
loop_end=157681
loop_mode=loop_continuous
loop_start=32999
loop_xfade=32999
lovel=0
sample=Timbales_Small_Roll_MF_D4.opus
</region>
</group>

<group>
ampeg_release=0.2
group_label=F
loop_mode=loop_continuous
xf_cccurve=gain
xfin_hicc1=101
xfin_locc1=77
xfout_hicc1=126
xfout_locc1=102

<region>
hivel=127
key=C3
loop_end=156710
loop_mode=loop_continuous
loop_start=32796
loop_xfade=32796
lovel=0
sample=Timbales_Large_Roll_F_D4.opus
</region>

<region>
hivel=127
key=D3
loop_end=152214
loop_mode=loop_continuous
loop_start=31855
loop_xfade=31855
lovel=0
sample=Timbales_Small_Roll_F_D4.opus
</region>
</group>

<group>
ampeg_release=0.2
group_label=FF
loop_mode=loop_continuous
xf_cccurve=gain
xfin_hicc1=127
xfin_locc1=102
xfout_hicc1=127
xfout_locc1=127

<region>
hivel=127
key=C3
loop_end=192554
loop_mode=loop_continuous
loop_start=40298
loop_xfade=40298
lovel=0
sample=Timbales_Large_Roll_FF_D4.opus
</region>

<region>
hivel=127
key=D3
loop_end=182469
loop_mode=loop_continuous
loop_start=38187
loop_xfade=38187
lovel=0
sample=Timbales_Small_Roll_FF_D4.opus
</region>
</group>

<group>
ampeg_attack=0.01
ampeg_release=1.5
group_label=P_Rel
trigger=release
xf_cccurve=gain
xfin_hicc1=25
xfout_hicc1=50
xfout_locc1=26

<region>
hivel=127
key=C3
lovel=0
offset=216535
sample=Timbales_Large_Roll_P_D4.opus
</region>

<region>
hivel=127
key=D3
lovel=0
offset=220745
sample=Timbales_Small_Roll_P_D4.opus
</region>
</group>

<group>
ampeg_attack=0.01
ampeg_release=1.5
group_label=MP_Rel
trigger=release
xf_cccurve=gain
xfin_hicc1=50
xfin_locc1=26
xfout_hicc1=76
xfout_locc1=51

<region>
hivel=127
key=C3
lovel=0
offset=210899
sample=Timbales_Large_Roll_MP_D4.opus
</region>

<region>
hivel=127
key=D3
lovel=0
offset=207786
sample=Timbales_Small_Roll_MP_D4.opus
</region>
</group>

<group>
ampeg_attack=0.01
ampeg_release=1.5
group_label=MF_Rel
trigger=release
xf_cccurve=gain
xfin_hicc1=76
xfin_locc1=51
xfout_hicc1=101
xfout_locc1=77

<region>
hivel=127
key=C3
lovel=0
offset=207000
sample=Timbales_Large_Roll_MF_D4.opus
</region>

<region>
hivel=127
key=D3
lovel=0
offset=205568
sample=Timbales_Small_Roll_MF_D4.opus
</region>
</group>

<group>
ampeg_attack=0.01
ampeg_release=1.5
group_label=F_Rel
trigger=release
xf_cccurve=gain
xfin_hicc1=101
xfin_locc1=77
xfout_hicc1=126
xfout_locc1=102

<region>
hivel=127
key=C3
lovel=0
offset=212561
sample=Timbales_Large_Roll_F_D4.opus
</region>

<region>
hivel=127
key=D3
lovel=0
offset=200175
sample=Timbales_Small_Roll_F_D4.opus
</region>
</group>

<group>
ampeg_attack=0.01
ampeg_release=1.5
group_label=FF_Rel
trigger=release
xf_cccurve=gain
xfin_hicc1=127
xfin_locc1=102
xfout_hicc1=127
xfout_locc1=127

<region>
hivel=127
key=C3
lovel=0
offset=210801
sample=Timbales_Large_Roll_FF_D4.opus
</region>

<region>
hivel=127
key=D3
lovel=0
offset=192671
sample=Timbales_Small_Roll_FF_D4.opus
</region>
</group>